<?xml version="1.0" encoding="UTF-8" standalone="no"?>
<!DOCTYPE svg PUBLIC "-//W3C//DTD SVG 1.1//EN" "http://www.w3.org/Graphics/SVG/1.1/DTD/svg11.dtd">
<svg width="100%" height="100%" viewBox="0 0 1423 96" version="1.1" xmlns="http://www.w3.org/2000/svg" xmlns:xlink="http://www.w3.org/1999/xlink" xml:space="preserve" xmlns:serif="http://www.serif.com/" style="fill-rule:evenodd;clip-rule:evenodd;stroke-linecap:round;stroke-linejoin:round;stroke-miterlimit:1.5;">
    <g id="Curve" transform="matrix(1,0,0,1.0168,-167,-578.076)">
        <rect x="167" y="568.527" width="1423" height="93.577" style="fill:none;"/>
        <clipPath id="_clip1">
            <rect x="167" y="568.527" width="1423" height="93.577"/>
        </clipPath>
        <g clip-path="url(#_clip1)">
            <g transform="matrix(1,0,0,0.983482,0,9.90936)">
                <path d="M167,620.079C167,620.079 270.995,595.521 308,620.079C345.005,644.636 383.696,671.317 437,659C490.304,646.683 485.931,588.014 527,602C568.069,615.986 596,645 596,645C596,645 598.299,656.267 586,653C573.701,649.733 615.612,626.507 642,629C668.388,631.493 706.076,649.701 757,604C796,569 718.574,569.155 776,610C833.426,650.845 891,641 891,641C891,641 956.23,635.478 976,604C995.77,572.522 1038.35,570.486 1064,578C1089.65,585.514 1139.31,640.83 1160,620.079C1187,593 1099.95,625.762 1206,620.079C1312.05,614.396 1309.7,609.097 1318,591C1326.3,572.903 1351.32,565.001 1378,570C1404.68,574.999 1404.58,606.089 1472,620.079C1539.42,634.068 1590,600 1590,600" style="fill:none;stroke:black;stroke-width:1px;"/>
            </g>
            <g id="Posts">
                <g id="Post1" transform="matrix(1.55934,0,0,1.53358,133.603,543.258)">
                    <circle cx="58.787" cy="43.787" r="3.787" style="fill:rgb(0,129,167);"/>
                </g>
                <g id="Post2" transform="matrix(1.55934,0,0,1.53358,255.118,575.911)">
                    <circle cx="58.787" cy="43.787" r="3.787" style="fill:rgb(0,129,167);"/>
                </g>
                <g id="Post3" transform="matrix(1.55934,0,0,1.53358,400.236,547.91)">
                    <circle cx="58.787" cy="43.787" r="3.787" style="fill:rgb(0,129,167);"/>
                </g>
                <g id="Post4" transform="matrix(1.55934,0,0,1.53358,632.236,559.526)">
                    <circle cx="58.787" cy="43.787" r="3.787" style="fill:rgb(0,129,167);"/>
                </g>
                <g id="Post5" transform="matrix(1.55934,0,0,1.53358,854.236,559.526)">
                    <circle cx="58.787" cy="43.787" r="3.787" style="fill:rgb(0,129,167);"/>
                </g>
            </g>
        </g>
    </g>
</svg>
