<?xml version="1.0" encoding="UTF-8" standalone="no"?>
<!DOCTYPE svg PUBLIC "-//W3C//DTD SVG 1.1//EN" "http://www.w3.org/Graphics/SVG/1.1/DTD/svg11.dtd">
<svg width="100%" height="100%" viewBox="0 0 1423 226" version="1.1" xmlns="http://www.w3.org/2000/svg" xmlns:xlink="http://www.w3.org/1999/xlink" xml:space="preserve" xmlns:serif="http://www.serif.com/" style="fill-rule:evenodd;clip-rule:evenodd;stroke-linecap:round;stroke-linejoin:round;stroke-miterlimit:1.5;">
    <g id="PostTree" transform="matrix(1,0,0,2.41512,-167,-1373.06)">
        <rect x="167" y="568.527" width="1423" height="93.577" style="fill:none;"/>
        <clipPath id="_clip1">
            <rect x="167" y="568.527" width="1423" height="93.577"/>
        </clipPath>
        <g clip-path="url(#_clip1)">
            <g transform="matrix(1,0,0,0.414058,0,357.358)">
                <g id="Tree">
                    <path d="M167,620.079C167,620.079 270.995,595.521 308,620.079C345.005,644.636 383.696,671.317 437,659C490.304,646.683 485.931,588.014 527,602C568.069,615.986 596,645 596,645C596,645 598.299,656.267 586,653C573.701,649.733 615.612,626.507 642,629C668.388,631.493 706.076,649.701 757,604C796,569 718.574,569.155 776,610C833.426,650.845 891,641 891,641C891,641 956.23,635.478 976,604C995.77,572.522 1038.35,570.486 1064,578C1089.65,585.514 1139.31,640.83 1160,620.079C1187,593 1099.95,625.762 1206,620.079C1312.05,614.396 1309.7,609.097 1318,591C1326.3,572.903 1351.32,565.001 1378,570C1404.68,574.999 1404.58,606.089 1472,620.079C1539.42,634.068 1590,600 1590,600" style="fill:none;stroke:black;stroke-width:1px;"/>
                </g>
            </g>
            <g id="Posts" transform="matrix(1,0,0,0.421012,0,353.186)">
                <g id="Post1">
                    <g id="Post11" serif:id="Post1" transform="matrix(1.55934,0,0,1.53358,133.603,543.258)">
                        <circle cx="58.787" cy="43.787" r="3.787" style="fill:rgb(0,129,167);"/>
                    </g>
                    <g transform="matrix(1,0,0,0.983482,167,568.527)">
                        <path d="M67,29L79,13" style="fill:none;stroke:black;stroke-width:1px;"/>
                    </g>
                    <g transform="matrix(1,0,0,0.983482,162.304,515.449)">
                        <g transform="matrix(12.5644,0,0,12.5644,132.883,60)">
                        </g>
                        <text x="70px" y="60px" style="font-family:'ArialMT', 'Arial';font-size:12.564px;">23.07.2024</text>
                    </g>
                </g>
                <g id="Post2">
                    <g id="Post21" serif:id="Post2" transform="matrix(1.55934,0,0,1.53358,255.118,575.911)">
                        <circle cx="58.787" cy="43.787" r="3.787" style="fill:rgb(0,129,167);"/>
                    </g>
                    <g transform="matrix(0.900905,-0.426846,0.434016,0.886024,267.053,678.259)">
                        <path d="M67,29L79,13" style="fill:none;stroke:black;stroke-width:1px;"/>
                    </g>
                    <g transform="matrix(1,0,0,0.983482,238.297,629.612)">
                        <g transform="matrix(12.5644,0,0,12.5644,132.883,60)">
                        </g>
                        <text x="70px" y="60px" style="font-family:'ArialMT', 'Arial';font-size:12.564px;">15.03.2024</text>
                    </g>
                </g>
                <g id="Post3">
                    <g id="Post31" serif:id="Post3" transform="matrix(1.55934,0,0,1.53358,400.236,547.91)">
                        <circle cx="58.787" cy="43.787" r="3.787" style="fill:rgb(0,129,167);"/>
                    </g>
                    <g transform="matrix(0.384964,-0.907686,0.922931,0.378605,431.59,655.358)">
                        <path d="M67,29L79,13" style="fill:none;stroke:black;stroke-width:1px;"/>
                    </g>
                    <g transform="matrix(1,0,0,0.983482,370.609,524.157)">
                        <g transform="matrix(12.5644,0,0,12.5644,132.883,60)">
                        </g>
                        <text x="70px" y="60px" style="font-family:'ArialMT', 'Arial';font-size:12.564px;">05.10.2023</text>
                    </g>
                </g>
                <g id="Post4">
                    <g id="Post41" serif:id="Post4" transform="matrix(1.55934,0,0,1.53358,632.236,559.526)">
                        <circle cx="58.787" cy="43.787" r="3.787" style="fill:rgb(0,129,167);"/>
                    </g>
                    <g transform="matrix(0.397613,-0.902397,0.917553,0.391045,686.25,702.559)">
                        <path d="M67,29L79,13" style="fill:none;stroke:black;stroke-width:1px;"/>
                    </g>
                    <g transform="matrix(1,0,0,0.983482,639.598,608.244)">
                        <g transform="matrix(12.5644,0,0,12.5644,132.883,60)">
                        </g>
                        <text x="70px" y="60px" style="font-family:'ArialMT', 'Arial';font-size:12.564px;">07.01.2023</text>
                    </g>
                </g>
                <g id="Post5">
                    <g id="Post51" serif:id="Post5" transform="matrix(1.55934,0,0,1.53358,854.236,559.526)">
                        <circle cx="58.787" cy="43.787" r="3.787" style="fill:rgb(0,129,167);"/>
                    </g>
                    <g transform="matrix(0.397613,-0.902397,0.917553,0.391045,887.578,665.306)">
                        <path d="M67,29L79,13" style="fill:none;stroke:black;stroke-width:1px;"/>
                    </g>
                    <g transform="matrix(1,0,0,0.983482,824.047,531.243)">
                        <g transform="matrix(12.5644,0,0,12.5644,132.883,60)">
                        </g>
                        <text x="70px" y="60px" style="font-family:'ArialMT', 'Arial';font-size:12.564px;">03.03.2022</text>
                    </g>
                </g>
            </g>
        </g>
    </g>
</svg>
