<?xml version="1.0" encoding="UTF-8" standalone="no"?>
<!DOCTYPE svg PUBLIC "-//W3C//DTD SVG 1.1//EN" "http://www.w3.org/Graphics/SVG/1.1/DTD/svg11.dtd">
<svg width="100%" height="100%" viewBox="0 0 578 1093" version="1.1" xmlns="http://www.w3.org/2000/svg" xmlns:xlink="http://www.w3.org/1999/xlink" xml:space="preserve" xmlns:serif="http://www.serif.com/" style="fill-rule:evenodd;clip-rule:evenodd;stroke-linecap:round;stroke-linejoin:round;stroke-miterlimit:1.5;">
    <g transform="matrix(1,0,0,1,-810.418,0)">
        <g id="PostTree2" transform="matrix(0.406019,0,0,11.671,742.613,-6635.25)">
            <rect x="167" y="568.527" width="1423" height="93.577" style="fill:none;"/>
            <g transform="matrix(2.46294,0,0,0.0856828,114.163,570.096)">
                <g transform="matrix(50,0,0,50,368.51,1059.33)">
                </g>
                <text x="252.16px" y="1059.33px" style="font-family:'FuturaPT-Book', 'Futura PT';font-size:50px;">Music</text>
            </g>
            <g id="Tree">
                <g id="Treetrunk" transform="matrix(2.46294,0,0,0.0856828,-1829.01,568.527)">
                    <path d="M1090,1017.57C1090,1017.57 1142.23,959.904 1153.93,915.162C1173.06,841.986 1126.53,803.283 1098.32,817.529C1064.26,834.734 1043.67,873.195 1065.35,855.134C1087.02,837.073 1083.41,750.211 1081.24,704.781C1079.07,659.352 1061.74,609.503 1024.17,574.826C986.601,540.148 996.715,525.699 1019.11,512.695C1041.51,499.691 1144.09,475.128 1164.32,508.361C1184.55,541.593 1150.66,542.316 1146.32,516.308C1138.76,470.912 1187.52,451.288 1211.32,450.565C1235.12,449.843 1267.01,407.76 1202.67,349.062" style="fill:none;stroke:black;stroke-width:1px;"/>
                </g>
                <g id="Branches">
                    <g transform="matrix(2.46294,0,0,0.0856828,-1829.01,568.527)">
                        <path d="M1153.37,917.196C1153.37,917.196 1177.13,874.898 1196.07,902.358C1215.01,929.819 1218.94,927.504 1240.72,922.295" style="fill:none;stroke:black;stroke-width:1px;"/>
                    </g>
                    <g transform="matrix(2.46294,0,0,0.0856828,-1829.01,568.527)">
                        <path d="M1066.35,842.646C1066.35,842.646 1020.44,859.85 1002.05,830.336C989.088,809.54 959.748,818.09 959.984,839.633" style="fill:none;stroke:black;stroke-width:1px;"/>
                    </g>
                    <g transform="matrix(2.46294,0,0,0.0856828,-1829.01,568.527)">
                        <path d="M1083.07,767.058C1083.07,767.058 1103.35,715.56 1127.58,743.89C1140.63,759.148 1162.43,687.861 1187.86,711.442" style="fill:none;stroke:black;stroke-width:1px;"/>
                    </g>
                    <g transform="matrix(2.46294,0,0,0.0856828,-1829.01,571.56)">
                        <path d="M1078.27,642.81C1078.27,642.81 1066.43,600.552 1014.11,618.466C984.355,628.653 975.518,642.848 976.443,653.02" style="fill:none;stroke:black;stroke-width:1px;"/>
                    </g>
                    <g transform="matrix(2.46294,0,0,0.0856828,-1829.01,568.527)">
                        <path d="M1005.82,554.066C1005.82,554.066 958.889,524.081 931.752,531.972C904.614,539.863 887.082,529.256 878.22,513.073" style="fill:none;stroke:black;stroke-width:1px;"/>
                    </g>
                    <g transform="matrix(2.46294,0,0,0.0856828,-1829.01,568.527)">
                        <path d="M1061.5,498.501C1061.5,498.501 1090.84,490.856 1093.31,475.074C1095.78,459.292 1070.13,463.485 1061.75,448.936" style="fill:none;stroke:black;stroke-width:1px;"/>
                    </g>
                    <g transform="matrix(2.46294,0,0,0.0856828,-1829.01,568.527)">
                        <path d="M1178.63,459.634C1178.63,459.634 1227.19,450.408 1247.25,475.895C1262.33,495.045 1240.96,499.717 1232.49,524.762" style="fill:none;stroke:black;stroke-width:1px;"/>
                    </g>
                </g>
            </g>
            <g id="Posts">
                <g id="Post1" transform="matrix(1.50812e-16,-0.0856828,2.50431,5.33468e-18,229.463,661.386)">
                    <g id="Post11" serif:id="Post1" transform="matrix(2.38705e-16,3.83396,-3.89835,2.34762e-16,332.158,172.866)">
                        <circle cx="58.787" cy="43.787" r="3.787" style="fill:rgb(94,155,225);"/>
                    </g>
                    <g id="ViewButton1" transform="matrix(1,0,0,1,-5.64409,-17.7628)">
                        <g transform="matrix(6.12323e-17,0.983482,-1.4466,8.71158e-17,1548.4,366.356)">
                            <path d="M163.383,988.856L163.383,997.762C163.383,1000.22 160.497,1002.22 156.942,1002.22L80.572,1002.22C77.017,1002.22 74.131,1000.22 74.131,997.762L74.131,988.856C74.131,986.399 77.017,984.404 80.572,984.404L156.942,984.404C160.497,984.404 163.383,986.399 163.383,988.856Z" style="fill:rgb(94,155,225);"/>
                        </g>
                        <g transform="matrix(6.12323e-17,0.983482,-1,6.02209e-17,171.923,396.246)">
                            <g transform="matrix(18.75,0,0,18.75,108.516,67.1593)">
                            </g>
                            <text x="68.215px" y="67.159px" style="font-family:'ArialMT', 'Arial';font-size:18.75px;fill:white;">V<tspan x="80.382px 84.548px " y="67.159px 67.159px ">ie</tspan>w</text>
                        </g>
                    </g>
                    <g transform="matrix(6.12323e-17,0.983482,-1,6.02209e-17,232.522,314.824)">
                        <text x="121.887px" y="64.636px" style="font-family:'ArialMT', 'Arial';font-size:18.75px;">Stages</text>
                        <g transform="matrix(18.75,0,0,18.75,197.994,103.363)">
                        </g>
                        <text x="104.153px" y="103.363px" style="font-family:'ArialMT', 'Arial';font-size:18.75px;">30.12.2013</text>
                    </g>
                </g>
                <g id="Post2" transform="matrix(1,0,0,1,10.3169,-2.20015)">
                    <g id="ViewButton2" transform="matrix(1.50812e-16,-0.0856828,2.50431,5.33468e-18,-684.904,661.969)">
                        <g transform="matrix(6.12323e-17,0.983482,-1.4466,8.71158e-17,1548.4,366.356)">
                            <path d="M163.383,988.856L163.383,997.762C163.383,1000.22 160.497,1002.22 156.942,1002.22L80.572,1002.22C77.017,1002.22 74.131,1000.22 74.131,997.762L74.131,988.856C74.131,986.399 77.017,984.404 80.572,984.404L156.942,984.404C160.497,984.404 163.383,986.399 163.383,988.856Z" style="fill:rgb(94,155,225);"/>
                        </g>
                        <g transform="matrix(6.12323e-17,0.983482,-1,6.02209e-17,171.923,396.246)">
                            <g transform="matrix(18.75,0,0,18.75,108.516,67.1593)">
                            </g>
                            <text x="68.215px" y="67.159px" style="font-family:'ArialMT', 'Arial';font-size:18.75px;fill:white;">V<tspan x="80.382px 84.548px " y="67.159px 67.159px ">ie</tspan>w</text>
                        </g>
                    </g>
                    <g id="Post21" serif:id="Post2" transform="matrix(5.87916e-16,-0.334022,9.6014,2.04529e-17,104.637,662.305)">
                        <circle cx="58.787" cy="43.787" r="3.787" style="fill:rgb(94,155,225);"/>
                    </g>
                    <g transform="matrix(2.46294,-7.66529e-34,-7.2462e-32,0.0856828,90.6885,641.827)">
                        <text x="78.926px" y="64.636px" style="font-family:'ArialMT', 'Arial';font-size:18.75px;">Otherside Morning Jam</text>
                        <g transform="matrix(18.75,0,0,18.75,223.282,103.363)">
                        </g>
                        <text x="129.44px" y="103.363px" style="font-family:'ArialMT', 'Arial';font-size:18.75px;">28.07.2013</text>
                    </g>
                </g>
                <g id="Post3" transform="matrix(1.50812e-16,-0.0856828,2.50431,5.33468e-18,-308.64,676.784)">
                    <g id="Post31" serif:id="Post3" transform="matrix(3.89835,0,1.49958e-31,3.83396,322.85,393.257)">
                        <circle cx="58.787" cy="43.787" r="3.787" style="fill:rgb(94,155,225);"/>
                    </g>
                    <g id="ViewButton3" transform="matrix(1,1.09476e-47,-4.93038e-32,1,317.062,150.96)">
                        <g transform="matrix(6.12323e-17,0.983482,-1.4466,8.71158e-17,1548.4,366.356)">
                            <path d="M163.383,988.856L163.383,997.762C163.383,1000.22 160.497,1002.22 156.942,1002.22L80.572,1002.22C77.017,1002.22 74.131,1000.22 74.131,997.762L74.131,988.856C74.131,986.399 77.017,984.404 80.572,984.404L156.942,984.404C160.497,984.404 163.383,986.399 163.383,988.856Z" style="fill:rgb(94,155,225);"/>
                        </g>
                        <g transform="matrix(6.12323e-17,0.983482,-1,6.02209e-17,171.923,396.246)">
                            <g transform="matrix(18.75,0,0,18.75,108.516,67.1593)">
                            </g>
                            <text x="68.215px" y="67.159px" style="font-family:'ArialMT', 'Arial';font-size:18.75px;fill:white;">V<tspan x="80.382px 84.548px " y="67.159px 67.159px ">ie</tspan>w</text>
                        </g>
                    </g>
                    <g transform="matrix(6.12323e-17,0.983482,-1,6.02209e-17,557.637,446.231)">
                        <text x="78.824px" y="64.636px" style="font-family:'ArialMT', 'Arial';font-size:18.75px;">Pots <tspan x="120.517px 133.023px " y="64.636px 64.636px ">Al</tspan>ong the W<tspan x="221.958px 232.385px " y="64.636px 64.636px ">at</tspan>chtower</text>
                        <g transform="matrix(18.75,0,0,18.75,237.956,103.363)">
                        </g>
                        <text x="144.115px" y="103.363px" style="font-family:'ArialMT', 'Arial';font-size:18.75px;">17.07.2013</text>
                    </g>
                </g>
                <g id="Post4" transform="matrix(1.50812e-16,-0.0856828,2.50431,5.33468e-18,-790.247,672.572)">
                    <g id="ViewButton4" transform="matrix(1,0,-3.69779e-32,1,306.814,62.3075)">
                        <g transform="matrix(6.12323e-17,0.983482,-1.4466,8.71158e-17,1548.4,366.356)">
                            <path d="M163.383,988.856L163.383,997.762C163.383,1000.22 160.497,1002.22 156.942,1002.22L80.572,1002.22C77.017,1002.22 74.131,1000.22 74.131,997.762L74.131,988.856C74.131,986.399 77.017,984.404 80.572,984.404L156.942,984.404C160.497,984.404 163.383,986.399 163.383,988.856Z" style="fill:rgb(94,155,225);"/>
                        </g>
                        <g transform="matrix(6.12323e-17,0.983482,-1,6.02209e-17,171.923,396.246)">
                            <g transform="matrix(18.75,0,0,18.75,108.516,67.1593)">
                            </g>
                            <text x="68.215px" y="67.159px" style="font-family:'ArialMT', 'Arial';font-size:18.75px;fill:white;">V<tspan x="80.382px 84.548px " y="67.159px 67.159px ">ie</tspan>w</text>
                        </g>
                    </g>
                    <g id="Post41" serif:id="Post4" transform="matrix(3.89835,-2.40254e-33,1.85878e-31,3.83396,296.717,377.603)">
                        <circle cx="58.787" cy="43.787" r="3.787" style="fill:rgb(94,155,225);"/>
                    </g>
                    <g transform="matrix(6.12323e-17,0.983482,-1,6.02209e-17,544.994,368.565)">
                        <text x="109.497px" y="64.636px" style="font-family:'ArialMT', 'Arial';font-size:18.75px;">got_new_plugins</text>
                        <g transform="matrix(18.75,0,0,18.75,226.786,103.363)">
                        </g>
                        <text x="132.944px" y="103.363px" style="font-family:'ArialMT', 'Arial';font-size:18.75px;">14.08.2019</text>
                    </g>
                </g>
                <g id="Post5" transform="matrix(1.50812e-16,-0.0856828,2.50431,5.33468e-18,-1405.19,656.716)">
                    <g id="ViewButton5" transform="matrix(1,0,-2.46519e-32,1,515.051,210.335)">
                        <g transform="matrix(6.12323e-17,0.983482,-1.4466,8.71158e-17,1548.4,366.356)">
                            <path d="M163.383,988.856L163.383,997.762C163.383,1000.22 160.497,1002.22 156.942,1002.22L80.572,1002.22C77.017,1002.22 74.131,1000.22 74.131,997.762L74.131,988.856C74.131,986.399 77.017,984.404 80.572,984.404L156.942,984.404C160.497,984.404 163.383,986.399 163.383,988.856Z" style="fill:rgb(94,155,225);"/>
                        </g>
                        <g transform="matrix(6.12323e-17,0.983482,-1,6.02209e-17,171.923,396.246)">
                            <g transform="matrix(18.75,0,0,18.75,108.516,67.1593)">
                            </g>
                            <text x="68.215px" y="67.159px" style="font-family:'ArialMT', 'Arial';font-size:18.75px;fill:white;">V<tspan x="80.382px 84.548px " y="67.159px 67.159px ">ie</tspan>w</text>
                        </g>
                    </g>
                    <g id="Post51" serif:id="Post5" transform="matrix(3.89835,-2.40254e-33,1.85878e-31,3.83396,287.009,526.599)">
                        <circle cx="58.787" cy="43.787" r="3.787" style="fill:rgb(94,155,225);"/>
                    </g>
                    <g transform="matrix(6.12323e-17,0.983482,-1,6.02209e-17,654.914,532.652)">
                        <text x="145.288px" y="64.636px" style="font-family:'ArialMT', 'Arial';font-size:18.75px;">29.8</text>
                        <g transform="matrix(18.75,0,0,18.75,210.456,103.363)">
                        </g>
                        <text x="116.614px" y="103.363px" style="font-family:'ArialMT', 'Arial';font-size:18.75px;">30.09.2019</text>
                    </g>
                </g>
                <g id="Post6" transform="matrix(1.50812e-16,-0.0856828,2.50431,5.33468e-18,-843.575,686.652)">
                    <g id="ViewButton6" transform="matrix(1,0,-4.93038e-32,1,927.741,167.317)">
                        <g transform="matrix(6.12323e-17,0.983482,-1.4466,8.71158e-17,1548.4,366.356)">
                            <path d="M163.383,988.856L163.383,997.762C163.383,1000.22 160.497,1002.22 156.942,1002.22L80.572,1002.22C77.017,1002.22 74.131,1000.22 74.131,997.762L74.131,988.856C74.131,986.399 77.017,984.404 80.572,984.404L156.942,984.404C160.497,984.404 163.383,986.399 163.383,988.856Z" style="fill:rgb(94,155,225);"/>
                        </g>
                        <g transform="matrix(6.12323e-17,0.983482,-1,6.02209e-17,171.923,396.246)">
                            <g transform="matrix(18.75,0,0,18.75,108.516,67.1593)">
                            </g>
                            <text x="68.215px" y="67.159px" style="font-family:'ArialMT', 'Arial';font-size:18.75px;fill:white;">V<tspan x="80.382px 84.548px " y="67.159px 67.159px ">ie</tspan>w</text>
                        </g>
                    </g>
                    <g id="Post61" serif:id="Post6" transform="matrix(3.89835,-2.40254e-33,1.38621e-31,3.83396,700.521,482.59)">
                        <circle cx="58.787" cy="43.787" r="3.787" style="fill:rgb(94,155,225);"/>
                    </g>
                    <g transform="matrix(6.12323e-17,0.983482,-1,6.02209e-17,1067.87,455.355)">
                        <text x="159.311px" y="64.636px" style="font-family:'ArialMT', 'Arial';font-size:18.75px;">Everyday</text>
                        <g transform="matrix(18.75,0,0,18.75,245.311,103.363)">
                        </g>
                        <text x="151.47px" y="103.363px" style="font-family:'ArialMT', 'Arial';font-size:18.75px;">17.07.2019</text>
                    </g>
                </g>
                <g id="Post7" transform="matrix(1.50812e-16,-0.0856828,2.50431,5.33468e-18,-256.676,700.619)">
                    <g id="ViewButton7" transform="matrix(1,0,-2.46519e-32,1,799.158,101.124)">
                        <g transform="matrix(6.12323e-17,0.983482,-1.4466,8.71158e-17,1548.4,366.356)">
                            <path d="M163.383,988.856L163.383,997.762C163.383,1000.22 160.497,1002.22 156.942,1002.22L80.572,1002.22C77.017,1002.22 74.131,1000.22 74.131,997.762L74.131,988.856C74.131,986.399 77.017,984.404 80.572,984.404L156.942,984.404C160.497,984.404 163.383,986.399 163.383,988.856Z" style="fill:rgb(94,155,225);"/>
                        </g>
                        <g transform="matrix(6.12323e-17,0.983482,-1,6.02209e-17,171.923,396.246)">
                            <g transform="matrix(18.75,0,0,18.75,108.516,67.1593)">
                            </g>
                            <text x="68.215px" y="67.159px" style="font-family:'ArialMT', 'Arial';font-size:18.75px;fill:white;">V<tspan x="80.382px 84.548px " y="67.159px 67.159px ">ie</tspan>w</text>
                        </g>
                    </g>
                    <g id="Post71" serif:id="Post7" transform="matrix(3.89835,-2.40254e-33,1.85878e-31,3.83396,787.707,416.397)">
                        <circle cx="58.787" cy="43.787" r="3.787" style="fill:rgb(94,155,225);"/>
                    </g>
                    <g transform="matrix(6.12323e-17,0.983482,-1,6.02209e-17,1035.94,357.405)">
                        <text x="207.064px" y="64.636px" style="font-family:'ArialMT', 'Arial';font-size:18.75px;">W<tspan x="224.066px 234.493px " y="64.636px 64.636px ">as</tspan>a</text>
                        <g transform="matrix(18.75,0,0,18.75,277.601,103.363)">
                        </g>
                        <text x="183.759px" y="103.363px" style="font-family:'ArialMT', 'Arial';font-size:18.75px;">27.07.2019</text>
                    </g>
                </g>
                <g id="Post8" transform="matrix(1.50812e-16,-0.0856828,2.50431,5.33468e-18,-214.664,676.962)">
                    <g id="ViewButton8" transform="matrix(1,0,-2.46519e-32,1,917.105,55.0251)">
                        <g transform="matrix(6.12323e-17,0.983482,-1.4466,8.71158e-17,1548.4,366.356)">
                            <path d="M163.383,988.856L163.383,997.762C163.383,1000.22 160.497,1002.22 156.942,1002.22L80.572,1002.22C77.017,1002.22 74.131,1000.22 74.131,997.762L74.131,988.856C74.131,986.399 77.017,984.404 80.572,984.404L156.942,984.404C160.497,984.404 163.383,986.399 163.383,988.856Z" style="fill:rgb(94,155,225);"/>
                        </g>
                        <g transform="matrix(6.12323e-17,0.983482,-1,6.02209e-17,171.923,396.246)">
                            <g transform="matrix(18.75,0,0,18.75,108.516,67.1593)">
                            </g>
                            <text x="68.215px" y="67.159px" style="font-family:'ArialMT', 'Arial';font-size:18.75px;fill:white;">V<tspan x="80.382px 84.548px " y="67.159px 67.159px ">ie</tspan>w</text>
                        </g>
                    </g>
                    <g id="Post81" serif:id="Post8" transform="matrix(3.89835,-2.40254e-33,1.85878e-31,3.83396,687.3,370.298)">
                        <circle cx="58.787" cy="43.787" r="3.787" style="fill:rgb(94,155,225);"/>
                    </g>
                    <g transform="matrix(6.12323e-17,0.983482,-1,6.02209e-17,1059.37,340.607)">
                        <g transform="matrix(18.75,0,0,18.75,210.775,64.6357)">
                        </g>
                        <g transform="matrix(18.75,0,0,18.75,215.985,64.6357)">
                        </g>
                        <text x="160.769px" y="64.636px" style="font-family:'ArialMT', 'Arial';font-size:18.75px;">Stormﬂod</text>
                        <g transform="matrix(18.75,0,0,18.75,247.808,103.363)">
                        </g>
                        <text x="153.967px" y="103.363px" style="font-family:'ArialMT', 'Arial';font-size:18.75px;">01.01.2021</text>
                    </g>
                </g>
            </g>
        </g>
    </g>
</svg>
