<?xml version="1.0" encoding="UTF-8" standalone="no"?>
<!DOCTYPE svg PUBLIC "-//W3C//DTD SVG 1.1//EN" "http://www.w3.org/Graphics/SVG/1.1/DTD/svg11.dtd">
<svg width="100%" height="100%" viewBox="0 0 578 1093" version="1.1" xmlns="http://www.w3.org/2000/svg" xmlns:xlink="http://www.w3.org/1999/xlink" xml:space="preserve" xmlns:serif="http://www.serif.com/" style="fill-rule:evenodd;clip-rule:evenodd;stroke-linecap:round;stroke-linejoin:round;stroke-miterlimit:1.5;">
    <g id="PostTree1" transform="matrix(0.406019,0,0,11.671,-67.8052,-6635.25)">
        <rect x="167" y="568.527" width="1423" height="93.577" style="fill:none;"/>
        <g id="Tree" transform="matrix(1.50812e-16,-0.0856828,5.9483,1.26711e-17,-2764.23,670.024)">
            <g id="Treetrunk" transform="matrix(1,0,0,0.414058,0,357.358)">
                <path d="M167,620.079C167,620.079 270.995,595.521 308,620.079C313.474,623.711 318.985,627.391 324.574,630.983C356.771,651.676 391.581,669.495 437,659C490.304,646.683 485.038,589.047 527,602C556.463,611.095 596.969,634.221 611.656,615.956C626.319,597.721 631.107,474.85 568.997,473.309C542.5,472.652 587.586,511.482 609.783,482.332C620.17,468.692 647.479,439.545 671.758,477.988C696.038,516.431 677.031,689.394 723.617,706.118C754.44,717.183 779.135,695.843 801.959,671.342C824.782,646.841 834.266,626.292 874.575,644.47" style="fill:none;stroke:black;stroke-width:1px;"/>
            </g>
            <g id="Branches">
                <g id="Branch1" transform="matrix(1,0,0,0.414058,167,568.527)">
                    <path d="M76.59,99.416C76.59,99.416 120.369,89.748 105.747,69.033C96.421,55.822 82.044,47.662 95.255,33.285" style="fill:none;stroke:black;stroke-width:1px;"/>
                </g>
                <g id="Branch2" transform="matrix(1,0,0,0.414058,167,568.527)">
                    <path d="M159.265,122.065C159.265,122.065 176.441,133.347 167.212,152.104C157.983,170.861 134.669,156.728 124.469,171.08" style="fill:none;stroke:black;stroke-width:1px;"/>
                </g>
                <g id="Branch3" transform="matrix(6.12323e-17,0.414058,-1,2.53537e-17,1184.57,492.785)">
                    <path d="M335.003,782.25C335.003,782.25 313.184,732.804 293.863,784.012" style="fill:none;stroke:black;stroke-width:1px;"/>
                </g>
                <g id="Branch8" transform="matrix(6.12323e-17,0.414058,-1,2.53537e-17,1184.57,492.785)">
                    <path d="M273.328,668.129C273.328,668.129 295.993,649.816 306.342,676.387C315.154,699.013 330.444,695.684 344.801,685.545" style="fill:none;stroke:black;stroke-width:1px;"/>
                </g>
                <g id="Branch4" transform="matrix(0.982814,-0.0764335,0.184596,0.406942,119.216,601.655)">
                    <path d="M475,119C475,119 489.211,125.152 485.505,146.383C482.931,161.13 482.107,162.979 496.099,171.784" style="fill:none;stroke:black;stroke-width:1px;"/>
                </g>
                <g id="Branch5" transform="matrix(0.97689,-0.0885026,0.213745,0.404489,-68.0447,557.308)">
                    <path d="M685.031,130.421C685.031,130.421 713.208,118.54 711.5,96.076" style="fill:none;stroke:black;stroke-width:1px;"/>
                </g>
                <g id="Branch6" transform="matrix(0.238341,0.402125,-0.971182,0.0986868,1101.42,461.132)">
                    <path d="M329.966,488.169C329.966,488.169 377.758,486.383 380.463,507.597" style="fill:none;stroke:black;stroke-width:1px;"/>
                </g>
            </g>
        </g>
        <g id="Posts" transform="matrix(1.50812e-16,-0.0856828,2.50431,5.33468e-18,-663.377,670.024)">
            <g id="Post1" transform="matrix(1,0,0,1,72.1022,-34.7761)">
                <g id="Post11" serif:id="Post1" transform="matrix(3.89835,-2.40254e-33,1.85878e-31,3.83396,-38.484,411.118)">
                    <circle cx="58.787" cy="43.787" r="3.787" style="fill:rgb(94,155,225);"/>
                </g>
                <g id="ViewButton1">
                    <g transform="matrix(6.12323e-17,0.983482,-1.4466,8.71158e-17,1548.4,366.356)">
                        <path d="M163.383,988.856L163.383,997.762C163.383,1000.22 160.497,1002.22 156.942,1002.22L80.572,1002.22C77.017,1002.22 74.131,1000.22 74.131,997.762L74.131,988.856C74.131,986.399 77.017,984.404 80.572,984.404L156.942,984.404C160.497,984.404 163.383,986.399 163.383,988.856Z" style="fill:rgb(94,155,225);"/>
                    </g>
                    <g transform="matrix(6.12323e-17,0.983482,-1,6.02209e-17,171.923,396.246)">
                        <g transform="matrix(18.75,0,0,18.75,108.516,67.1593)">
                        </g>
                        <text x="68.215px" y="67.159px" style="font-family:'ArialMT', 'Arial';font-size:18.75px;fill:white;">V<tspan x="80.382px 84.548px " y="67.159px 67.159px ">ie</tspan>w</text>
                    </g>
                </g>
                <g transform="matrix(6.12323e-17,0.983482,-1,6.02209e-17,238.166,332.587)">
                    <text x="81.764px" y="64.636px" style="font-family:'ArialMT', 'Arial';font-size:18.75px;">Swedish Scenes</text>
                    <g transform="matrix(18.75,0,0,18.75,197.994,103.363)">
                    </g>
                    <text x="104.153px" y="103.363px" style="font-family:'ArialMT', 'Arial';font-size:18.75px;">12.04.2023</text>
                </g>
            </g>
            <g id="Post2" transform="matrix(1,0,0,1,-56.4617,44.9742)">
                <g id="ViewButton2" transform="matrix(1,0,-2.46519e-32,1,141.447,243.385)">
                    <g transform="matrix(6.12323e-17,0.983482,-1.4466,8.71158e-17,1548.4,366.356)">
                        <path d="M163.383,988.856L163.383,997.762C163.383,1000.22 160.497,1002.22 156.942,1002.22L80.572,1002.22C77.017,1002.22 74.131,1000.22 74.131,997.762L74.131,988.856C74.131,986.399 77.017,984.404 80.572,984.404L156.942,984.404C160.497,984.404 163.383,986.399 163.383,988.856Z" style="fill:rgb(94,155,225);"/>
                    </g>
                    <g transform="matrix(6.12323e-17,0.983482,-1,6.02209e-17,171.923,396.246)">
                        <g transform="matrix(18.75,0,0,18.75,108.516,67.1593)">
                        </g>
                        <text x="68.215px" y="67.159px" style="font-family:'ArialMT', 'Arial';font-size:18.75px;fill:white;">V<tspan x="80.382px 84.548px " y="67.159px 67.159px ">ie</tspan>w</text>
                    </g>
                </g>
                <g id="Post21" serif:id="Post2" transform="matrix(3.89835,-2.40254e-33,1.85878e-31,3.83396,118.757,466.887)">
                    <circle cx="58.787" cy="43.787" r="3.787" style="fill:rgb(94,155,225);"/>
                </g>
                <g transform="matrix(6.12323e-17,0.983482,-1,6.02209e-17,375.294,577.512)">
                    <text x="85.897px" y="64.636px" style="font-family:'ArialMT', 'Arial';font-size:18.75px;">Nils Frahm Jam</text>
                    <g transform="matrix(18.75,0,0,18.75,198.448,103.363)">
                    </g>
                    <text x="104.606px" y="103.363px" style="font-family:'ArialMT', 'Arial';font-size:18.75px;">22.01.2020</text>
                </g>
            </g>
            <g id="Post3" transform="matrix(1,0,0,1,-53.061,-25.9865)">
                <g id="ViewButton3" transform="matrix(1,0,-2.46519e-32,1,308.62,13.0737)">
                    <g transform="matrix(6.12323e-17,0.983482,-1.4466,8.71158e-17,1548.4,366.356)">
                        <path d="M163.383,988.856L163.383,997.762C163.383,1000.22 160.497,1002.22 156.942,1002.22L80.572,1002.22C77.017,1002.22 74.131,1000.22 74.131,997.762L74.131,988.856C74.131,986.399 77.017,984.404 80.572,984.404L156.942,984.404C160.497,984.404 163.383,986.399 163.383,988.856Z" style="fill:rgb(94,155,225);"/>
                    </g>
                    <g transform="matrix(6.12323e-17,0.983482,-1,6.02209e-17,171.923,396.246)">
                        <g transform="matrix(18.75,0,0,18.75,108.516,67.1593)">
                        </g>
                        <text x="68.215px" y="67.159px" style="font-family:'ArialMT', 'Arial';font-size:18.75px;fill:white;">V<tspan x="80.382px 84.548px " y="67.159px 67.159px ">ie</tspan>w</text>
                    </g>
                </g>
                <g id="Post31" serif:id="Post3" transform="matrix(3.89835,-2.40254e-33,1.85878e-31,3.83396,224.443,478.697)">
                    <circle cx="58.787" cy="43.787" r="3.787" style="fill:rgb(94,155,225);"/>
                </g>
                <g transform="matrix(6.12323e-17,0.983482,-1,6.02209e-17,584.051,319.331)">
                    <text x="108.994px" y="64.636px" style="font-family:'ArialMT', 'Arial';font-size:18.75px;">Soft Piano Cover</text>
                    <text x="103.437px" y="83.999px" style="font-family:'ArialMT', 'Arial';font-size:18.75px;">Gone W<tspan x="171.872px 178.116px " y="83.999px 83.999px ">ro</tspan>ng pt. II:</text>
                    <text x="42.934px" y="103.363px" style="font-family:'ArialMT', 'Arial';font-size:18.75px;">&quot;Spurven Sidder Stum bag Kvist&quot;</text>
                    <g transform="matrix(18.75,0,0,18.75,226.786,142.089)">
                    </g>
                    <text x="132.944px" y="142.089px" style="font-family:'ArialMT', 'Arial';font-size:18.75px;">21.01.2023</text>
                </g>
            </g>
            <g id="Post4" transform="matrix(1,0,0,1,-26.4751,238.706)">
                <g id="ViewButton4" transform="matrix(1,0,-2.46519e-32,1,349.607,68.2948)">
                    <g transform="matrix(6.12323e-17,0.983482,-1.4466,8.71158e-17,1548.4,366.356)">
                        <path d="M163.383,988.856L163.383,997.762C163.383,1000.22 160.497,1002.22 156.942,1002.22L80.572,1002.22C77.017,1002.22 74.131,1000.22 74.131,997.762L74.131,988.856C74.131,986.399 77.017,984.404 80.572,984.404L156.942,984.404C160.497,984.404 163.383,986.399 163.383,988.856Z" style="fill:rgb(94,155,225);"/>
                    </g>
                    <g transform="matrix(6.12323e-17,0.983482,-1,6.02209e-17,171.923,396.246)">
                        <g transform="matrix(18.75,0,0,18.75,108.516,67.1593)">
                        </g>
                        <text x="68.215px" y="67.159px" style="font-family:'ArialMT', 'Arial';font-size:18.75px;fill:white;">V<tspan x="80.382px 84.548px " y="67.159px 67.159px ">ie</tspan>w</text>
                    </g>
                </g>
                <g id="Post41" serif:id="Post4" transform="matrix(3.89835,-2.40254e-33,1.85878e-31,3.83396,296.324,264.101)">
                    <circle cx="58.787" cy="43.787" r="3.787" style="fill:rgb(94,155,225);"/>
                </g>
                <g transform="matrix(6.12323e-17,0.983482,-1,6.02209e-17,584.582,374.552)">
                    <text x="89.873px" y="64.636px" style="font-family:'ArialMT', 'Arial';font-size:18.75px;">Scripted Looping <tspan x="235.469px 244.844px 255.272px " y="64.636px 64.636px 64.636px ">Tes</tspan>t</text>
                    <g transform="matrix(18.75,0,0,18.75,226.786,103.363)">
                    </g>
                    <text x="132.944px" y="103.363px" style="font-family:'ArialMT', 'Arial';font-size:18.75px;">25.08.2024</text>
                </g>
            </g>
            <g id="Post5" transform="matrix(1,0,0,1,-19.1112,5.38682)">
                <g id="ViewButton5" transform="matrix(1,0,-2.46519e-32,1,441.302,262.011)">
                    <g transform="matrix(6.12323e-17,0.983482,-1.4466,8.71158e-17,1548.4,366.356)">
                        <path d="M163.383,988.856L163.383,997.762C163.383,1000.22 160.497,1002.22 156.942,1002.22L80.572,1002.22C77.017,1002.22 74.131,1000.22 74.131,997.762L74.131,988.856C74.131,986.399 77.017,984.404 80.572,984.404L156.942,984.404C160.497,984.404 163.383,986.399 163.383,988.856Z" style="fill:rgb(94,155,225);"/>
                    </g>
                    <g transform="matrix(6.12323e-17,0.983482,-1,6.02209e-17,171.923,396.246)">
                        <g transform="matrix(18.75,0,0,18.75,108.516,67.1593)">
                        </g>
                        <text x="68.215px" y="67.159px" style="font-family:'ArialMT', 'Arial';font-size:18.75px;fill:white;">V<tspan x="80.382px 84.548px " y="67.159px 67.159px ">ie</tspan>w</text>
                    </g>
                </g>
                <g id="Post51" serif:id="Post5" transform="matrix(3.89835,-2.40254e-33,1.85878e-31,3.83396,436.256,493.198)">
                    <circle cx="58.787" cy="43.787" r="3.787" style="fill:rgb(94,155,225);"/>
                </g>
                <g transform="matrix(6.12323e-17,0.983482,-1,6.02209e-17,696.166,584.329)">
                    <text x="104.135px" y="64.636px" style="font-family:'ArialMT', 'Arial';font-size:18.75px;">Partial Eclipse</text>
                    <text x="120.638px" y="83.999px" style="font-family:'ArialMT', 'Arial';font-size:18.75px;">T<tspan x="131.395px 135.561px " y="83.999px 83.999px ">im</tspan>elapse</text>
                    <g transform="matrix(18.75,0,0,18.75,210.456,122.726)">
                    </g>
                    <text x="116.614px" y="122.726px" style="font-family:'ArialMT', 'Arial';font-size:18.75px;">10.06.2021</text>
                </g>
            </g>
            <g id="Post6" transform="matrix(1,0,0,1,-274.33,-225.31)">
                <g id="ViewButton6" transform="matrix(1,0,-2.46519e-32,1,961.493,175.29)">
                    <g transform="matrix(6.12323e-17,0.983482,-1.4466,8.71158e-17,1548.4,366.356)">
                        <path d="M163.383,988.856L163.383,997.762C163.383,1000.22 160.497,1002.22 156.942,1002.22L80.572,1002.22C77.017,1002.22 74.131,1000.22 74.131,997.762L74.131,988.856C74.131,986.399 77.017,984.404 80.572,984.404L156.942,984.404C160.497,984.404 163.383,986.399 163.383,988.856Z" style="fill:rgb(94,155,225);"/>
                    </g>
                    <g transform="matrix(6.12323e-17,0.983482,-1,6.02209e-17,171.923,396.246)">
                        <g transform="matrix(18.75,0,0,18.75,108.516,67.1593)">
                        </g>
                        <text x="68.215px" y="67.159px" style="font-family:'ArialMT', 'Arial';font-size:18.75px;fill:white;">V<tspan x="80.382px 84.548px " y="67.159px 67.159px ">ie</tspan>w</text>
                    </g>
                </g>
                <g id="Post61" serif:id="Post6" transform="matrix(3.89835,-2.40254e-33,1.85878e-31,3.83396,691.865,483.477)">
                    <circle cx="58.787" cy="43.787" r="3.787" style="fill:rgb(94,155,225);"/>
                </g>
                <g transform="matrix(6.12323e-17,0.983482,-1,6.02209e-17,1101.62,463.327)">
                    <text x="117.613px" y="64.636px" style="font-family:'ArialMT', 'Arial';font-size:18.75px;">Light and Darkness</text>
                    <text x="126.467px" y="83.999px" style="font-family:'ArialMT', 'Arial';font-size:18.75px;">3D Landscape w<tspan x="265.105px " y="83.999px ">.</tspan></text>
                    <text x="152.523px" y="103.363px" style="font-family:'ArialMT', 'Arial';font-size:18.75px;">Piano Beat</text>
                    <g transform="matrix(18.75,0,0,18.75,245.311,142.089)">
                    </g>
                    <text x="151.47px" y="142.089px" style="font-family:'ArialMT', 'Arial';font-size:18.75px;">28.01.2024</text>
                </g>
            </g>
            <g id="Post7" transform="matrix(1,0,0,1,-234.591,210.008)">
                <g id="ViewButton7" transform="matrix(1,0,-2.46519e-32,1,947.518,98.8829)">
                    <g transform="matrix(6.12323e-17,0.983482,-1.4466,8.71158e-17,1548.4,366.356)">
                        <path d="M163.383,988.856L163.383,997.762C163.383,1000.22 160.497,1002.22 156.942,1002.22L80.572,1002.22C77.017,1002.22 74.131,1000.22 74.131,997.762L74.131,988.856C74.131,986.399 77.017,984.404 80.572,984.404L156.942,984.404C160.497,984.404 163.383,986.399 163.383,988.856Z" style="fill:rgb(94,155,225);"/>
                    </g>
                    <g transform="matrix(6.12323e-17,0.983482,-1,6.02209e-17,171.923,396.246)">
                        <g transform="matrix(18.75,0,0,18.75,108.516,67.1593)">
                        </g>
                        <text x="68.215px" y="67.159px" style="font-family:'ArialMT', 'Arial';font-size:18.75px;fill:white;">V<tspan x="80.382px 84.548px " y="67.159px 67.159px ">ie</tspan>w</text>
                    </g>
                </g>
                <g id="Post71" serif:id="Post7" transform="matrix(3.89835,-2.40254e-33,1.85878e-31,3.83396,704.553,360.889)">
                    <circle cx="58.787" cy="43.787" r="3.787" style="fill:rgb(94,155,225);"/>
                </g>
                <g transform="matrix(6.12323e-17,0.983482,-1,6.02209e-17,1093.07,384.465)">
                    <text x="110.745px" y="64.636px" style="font-family:'ArialMT', 'Arial';font-size:18.75px;">Contrasting Guitarsoli</text>
                    <text x="125.837px" y="83.999px" style="font-family:'ArialMT', 'Arial';font-size:18.75px;">in 3D Landscapes</text>
                    <g transform="matrix(18.75,0,0,18.75,247.808,122.726)">
                    </g>
                    <text x="153.967px" y="122.726px" style="font-family:'ArialMT', 'Arial';font-size:18.75px;">28.05.2024</text>
                </g>
            </g>
            <g id="Post8" transform="matrix(1,0,0,1,-45.9176,-6.88861)">
                <g id="ViewButton8" transform="matrix(1,0,-2.46519e-32,1,795.305,69.9716)">
                    <g transform="matrix(6.12323e-17,0.983482,-1.4466,8.71158e-17,1548.4,366.356)">
                        <path d="M163.383,988.856L163.383,997.762C163.383,1000.22 160.497,1002.22 156.942,1002.22L80.572,1002.22C77.017,1002.22 74.131,1000.22 74.131,997.762L74.131,988.856C74.131,986.399 77.017,984.404 80.572,984.404L156.942,984.404C160.497,984.404 163.383,986.399 163.383,988.856Z" style="fill:rgb(94,155,225);"/>
                    </g>
                    <g transform="matrix(6.12323e-17,0.983482,-1,6.02209e-17,171.923,396.246)">
                        <g transform="matrix(18.75,0,0,18.75,108.516,67.1593)">
                        </g>
                        <text x="68.215px" y="67.159px" style="font-family:'ArialMT', 'Arial';font-size:18.75px;fill:white;">V<tspan x="80.382px 84.548px " y="67.159px 67.159px ">ie</tspan>w</text>
                    </g>
                </g>
                <g id="Post81" serif:id="Post8" transform="matrix(3.89835,-2.40254e-33,1.85878e-31,3.83396,691.865,483.477)">
                    <circle cx="58.787" cy="43.787" r="3.787" style="fill:rgb(94,155,225);"/>
                </g>
                <g transform="matrix(6.12323e-17,0.983482,-1,6.02209e-17,1070.46,326.253)">
                    <text x="159.809px" y="64.636px" style="font-family:'ArialMT', 'Arial';font-size:18.75px;">Soft Piano Cover</text>
                    <text x="175.094px" y="83.999px" style="font-family:'ArialMT', 'Arial';font-size:18.75px;">Gone W<tspan x="243.53px 249.774px " y="83.999px 83.999px ">ro</tspan>ng:</text>
                    <text x="172.975px" y="103.363px" style="font-family:'ArialMT', 'Arial';font-size:18.75px;">&quot;Rør ved Mig&quot;</text>
                    <g transform="matrix(18.75,0,0,18.75,277.601,142.089)">
                    </g>
                    <text x="183.759px" y="142.089px" style="font-family:'ArialMT', 'Arial';font-size:18.75px;">19.12.2021</text>
                </g>
            </g>
        </g>
        <g transform="matrix(2.46294,0,0,0.0856828,114.163,570.096)">
            <g transform="matrix(50,0,0,50,386.324,1058.69)">
            </g>
            <text x="234.346px" y="1058.69px" style="font-family:'ArialMT', 'Arial';font-size:50px;">V<tspan x="266.793px 277.901px " y="1058.69px 1058.69px ">id</tspan>eos</text>
        </g>
    </g>
</svg>
